# https://github.com/mikedh/trimesh
v -40.74770774 35.48633908 -20.75773506
v -40.58832815 22.17137148 -20.73182125
v -40.40461963 46.52440119 -11.78542453
v -40.52192004 25.82052728 -11.75274842
v -40.31945447 53.83781842 -20.82514045
v -40.20032782 5.02119013 -20.97422422
v -40.07115028 10.99996723 -11.68162679
v -40.06462487 64.07983623 -20.95315647
v -39.85038431 4.49874518 -11.46286761
v -40.13106133 -2.04708143 -20.81631937
v -39.93481958 63.84752168 -10.63740549
v -39.99040529 -18.83332152 -19.83766892
v -39.93015451 33.87515338 -8.90771171
v -39.56919561 -48.44817445 -21.03827125
v -39.42097396 69.54423398 -10.36189231
v -39.49236649 -30.44201712 -11.75002963
v -39.32148343 -50.16968132 -11.57918161
v -39.18643578 3.02186755 -9.15892393
v -39.18682479 37.11335609 -8.09438886
v -39.01297507 46.66992458 19.13743857
v -39.08095546 -69.00618621 -10.82551463
v -39.61513675 -1.58673998 -21.55757700
v -38.92919612 7.10953057 6.28488007
v -39.32429249 70.71960947 -20.66739123
v -38.99819132 14.35976638 20.84709673
v -38.99812380 58.96643086 -7.63599734
v -38.66250024 62.60943540 16.93504596
v -38.87636509 55.36152537 23.29018794
v -39.09128297 68.29979940 -7.76562589
v -38.32627542 -66.94674442 -9.08929633
v -38.85400707 7.97015044 -8.59882248
v -38.74233996 38.46178251 23.47075253
v -39.08529445 -68.61937444 -21.26092880
v -38.37775212 67.36329805 -7.29947090
v -38.68547749 6.59155307 22.94757381
v -38.04329721 73.03420333 -7.99533329
v -38.76407642 -12.37591611 -8.98547119
v -38.18062125 4.18426871 -8.40464015
v -38.41603788 73.53962341 -15.12485536
v -38.12819122 55.68171856 25.78941352
v -38.20712854 3.84825354 20.87511770
v -38.10092537 62.93744761 23.77994878
v -37.80186091 -72.69493120 -10.23369285
v -36.96846146 -28.92300275 -21.81262363
v -37.58181062 -71.76476846 -9.20491476
v -37.57656554 6.97197843 25.67652780
v -37.40823164 2.54655875 -1.79320787
v -39.97084839 40.38674631 -21.72777137
v -37.64797130 69.53560710 -6.96659137
v -36.82364239 62.31107255 27.06768223
v -37.07122434 2.42285912 20.75045703
v -37.63327733 68.17008758 14.05499039
v -36.29029230 3.42268567 25.07653644
v -37.33603947 -2.22424544 -8.59723395
v -37.07947249 -20.64303132 -8.74059485
v -36.99882552 -26.39639437 -4.77810722
v -36.87366789 66.67689414 24.54573407
v -36.91706819 -1.12228725 -1.64606786
v -36.67542130 -44.01742933 -4.34859901
v -36.43455763 -66.96158884 -8.97800234
v -36.62227187 74.28284203 -7.49276030
v -36.88058972 57.02947090 27.24683593
v -36.57776395 -68.38773418 -0.52619872
v -36.49312036 9.34929817 26.72758520
v -35.93610620 70.82738954 14.06042169
v -36.32877626 74.89964980 -20.06076933
v -36.15161564 -48.69656802 -0.97851814
v -37.77675288 -72.70915106 -21.63213065
v -35.95874956 1.63008814 0.02811133
v -35.57045413 72.33899943 -6.90024145
v -35.32821097 -74.88949363 -10.25895715
v -35.59370903 -26.38519239 0.52890057
v -37.66160079 73.46238772 -21.04187448
v -35.11869258 -47.86190870 0.78321340
v -36.61864975 0.11945778 -8.47517798
v -35.32670323 0.79507267 -4.88619631
v -34.89387413 -75.12917910 -21.34313756
v -36.31445213 -69.27838485 -6.36175698
v -36.26665181 -0.16768481 -0.14014283
v -36.26000869 2.37970824 -8.17334563
v -35.49092512 -68.11479678 0.82713873
v -35.23274988 -71.68191833 -0.05661184
v -35.48623197 70.31523466 21.05154393
v -33.55731776 75.69590942 -7.85976161
v -34.49395642 6.92312740 27.41423285
v -34.30350268 35.32806960 27.62493039
v -31.83607754 -75.15673604 -9.44969374
v -32.87360840 75.58503443 -20.81050604
v -34.11121868 72.64704315 13.53740617
v -33.11549645 70.25834887 26.48316576
v -32.64892019 67.57281252 28.54038129
v -32.71399539 -71.17521603 1.26942399
v -34.14122715 -3.12603097 1.61926216
v -34.73598092 -40.75395616 1.19931755
v -38.62499678 69.55477418 -21.68823657
v -32.99812601 -67.33960873 1.85749255
v -33.51156444 3.62221003 26.34097433
v -32.73267840 54.68554420 28.08548608
v -32.66146967 2.15501734 24.10552912
v -33.33381628 -56.63597960 1.96235454
v -33.14669200 1.24004943 -2.32602178
v -34.80429263 1.65203105 21.06288383
v -34.47168108 -71.92247822 -9.12070330
v -34.49529198 61.79532276 28.46480568
v -32.54142182 68.09120827 -34.17125236
v -33.26615119 69.57999142 -34.12141465
v -32.59081315 -67.54292588 -34.57863272
v -31.13693845 1.51322360 -5.34414288
v -32.16545848 67.80650240 -21.82875680
v -31.86518757 -67.85233530 -21.83389369
v -32.55687121 -68.85422372 -34.55693486
v -32.54136655 68.06472192 -28.54723387
v -31.60202323 -73.91955741 -0.02062528
v -32.14209878 70.05379549 -34.14805838
v -31.88717094 -69.82484466 -21.82218851
v -31.82486466 69.86136626 -21.81173728
v -31.08396119 2.03609095 -7.95353835
v -31.40420835 27.77082964 27.35461284
v -32.19615303 -75.90966730 -15.17994258
v -31.66699941 67.94302378 -29.79711516
v -31.28875274 -67.68275468 -34.47877008
v -30.61520985 66.95465005 -21.83728559
v -31.29732371 -68.82117683 -34.51798410
v -31.57022746 69.06680214 -34.19668873
v -30.76428913 7.42336784 26.93198744
v -32.14953745 -73.67742714 -6.41731847
v -30.99047233 -58.04551227 2.59800938
v -32.38836162 73.77972578 5.04619597
v -31.34380968 51.67110656 27.52821943
v -27.68141904 0.66914871 1.17878906
v -29.11024244 -75.86177456 -9.90282976
v -30.17137000 69.16216650 -21.84278551
v -30.42090875 1.54644820 -3.72946207
v -29.77757660 -67.80083111 -21.79246464
v -29.74357246 -69.85520260 -21.86215421
v -29.50636063 27.28324736 26.30915731
v -30.98702702 3.58621246 25.36270530
v -29.64072262 53.04367866 32.60073093
v -30.50319744 1.75038183 14.33026024
v -28.46497171 2.09429073 -7.48443345
v -29.70635328 55.41609899 27.01477691
v -30.01506777 59.25082734 28.41203772
v -29.52058330 52.69335216 29.99152108
v -29.64795558 6.03428428 24.30243971
v -28.60445311 74.49961811 16.21786138
v -32.67419354 -74.60026030 -21.75799415
v -30.84983788 74.29840849 -6.93841777
v -31.10246471 73.20967454 22.94674111
v -27.62533742 -64.08133111 2.72119177
v -27.12225693 -66.84032323 -21.81655163
v -28.83015324 55.08396001 31.38336085
v -29.43361649 52.46150404 25.84952212
v -27.92570598 72.45702418 26.70151190
v -28.14058508 43.57197179 22.00419482
v -28.92692552 50.87448608 28.64790694
v -30.64359132 74.53640041 -21.62893903
v -32.26658722 -0.72890920 1.72320286
v -29.02202659 13.54540086 24.80889400
v -28.78035710 2.52515062 -7.54653012
v -26.55576012 -46.85803569 -21.80666607
v -26.96068192 7.27451688 12.37360201
v -28.06358355 54.58038901 28.40771530
v -28.72389078 66.25112066 30.01247918
v -28.86923404 51.48078719 32.71099198
v -26.00190121 76.14589735 -8.74311755
v -28.39656174 2.49690872 13.21676254
v -27.57339276 2.53089299 0.91497615
v -29.79700192 -76.07641000 -21.09911768
v -27.99665469 10.83328412 20.30136617
v -26.74751229 3.11571663 -7.86395432
v -27.56636540 49.41160744 25.94578835
v -27.84814142 24.01078230 21.54978422
v -27.25823125 69.28165850 29.29824740
v -26.75344591 3.96129481 2.08622299
v -27.98554028 51.93762685 19.75741510
v -26.45556001 52.62787816 12.58117322
v -26.98229028 4.74986049 -7.93146639
v -26.04585579 -32.49513144 3.42281870
v -26.69911911 34.82378348 13.78983807
v -26.60586270 48.07482381 27.37697579
v -26.46636081 55.48121501 31.28076760
v -25.26890134 74.46770615 22.90318507
v -26.68261282 38.56659775 13.80202716
v -27.17295707 55.35097198 23.01887971
v -26.57240102 50.03351310 10.78031198
v -25.06013110 74.96260041 -7.04335096
v -28.33714155 -21.45469264 -21.81720949
v -29.96712092 -5.88954374 2.73451539
v -25.96884618 36.56968389 9.98111264
v -25.78170357 12.53909921 8.24935711
v -28.48056016 75.92185578 -20.17624676
v -24.71193420 53.15985606 21.74628708
v -25.67882578 44.28541978 6.55460023
v -28.26452155 -74.05829142 -9.27680732
v -26.19965416 47.47005457 21.38302128
v -25.71060421 26.43362811 9.31482377
v -23.67435589 50.69178605 33.51238328
v -26.30777117 56.17550328 28.87108732
v -24.85439776 50.01863303 17.28124979
v -25.13584516 -53.96291515 3.36056243
v -27.27111882 57.30246167 26.51622473
v -25.60225532 46.17912829 21.76085655
v -25.48848327 8.63378975 -7.89629618
v -26.12384229 74.78816859 14.04541614
v -25.02244822 42.52265959 4.60037947
v -25.45701356 54.10105899 14.02310032
v -24.12478623 33.35079285 3.24060067
v -28.05868394 -74.39119770 -3.15805990
v -24.50068536 43.07933380 10.51651524
v -24.99101150 2.70366862 0.76957157
v -24.91798540 50.47677451 11.41478045
v -24.55952213 51.89008543 15.29972759
v -24.12613881 12.17882136 -8.61536750
v -23.17714640 55.94919938 22.65015432
v -24.72253512 46.58389109 12.33893042
v -24.32534178 39.89146820 2.11072999
v -27.74035075 61.17225931 -21.81855139
v -20.10857238 -69.62082987 2.16159862
v -24.11782469 13.69732722 -2.99221089
v -24.19581613 16.37430227 -0.43670158
v -24.46788384 14.62360576 -7.58289957
v -24.74211307 5.32150437 -2.75326357
v -27.52104331 53.41380525 33.95109286
v -23.66601829 7.33192145 -0.71620917
v -23.84303665 43.45808029 6.70710564
v -23.60209025 39.21855577 11.69706109
v -24.21159102 7.23401986 -8.11208704
v -23.50903060 50.02883213 13.92592627
v -23.55950737 54.98036957 17.73941040
v -23.46513096 38.01774593 -2.48049380
v -23.07248866 53.37403085 18.44110074
v -23.32167629 5.56229286 1.23585572
v -23.30476557 13.15161206 -5.79234031
v -23.39354390 41.56785497 3.13366865
v -22.94722232 39.93880811 16.53131632
v -23.63667232 24.05070648 -3.26407230
v -22.06832416 55.42805784 20.79728388
v -23.28793950 56.58335307 24.19762663
v -23.24773595 11.78662035 -2.31303256
v -22.51932901 29.42311780 1.50578032
v -21.70891164 74.97890224 18.60122600
v -22.63130660 10.26701935 1.39627929
v -22.73015531 41.36500720 1.27890142
v -22.99522980 38.10015129 5.18093239
v -20.97147860 37.25886628 2.94942658
v -18.35884533 57.50134336 25.72380260
v -22.37836612 -0.05199422 2.45971853
v -20.61282515 38.70430660 1.84359210
v -22.63278451 47.22344192 29.55960425
v -21.70049886 44.14688118 24.96404019
v -20.44478268 55.36831486 30.53430879
v -18.40645638 38.53462910 2.28235875
v -20.22066786 74.59909599 23.33312518
v -20.83250539 37.23256211 3.91968458
v -27.48779908 -72.97748638 0.92711463
v -18.72786541 -12.54006967 3.73637864
v -15.40539105 57.30678175 27.18888940
v -17.42041289 30.86036302 2.62030142
v 5.28975638 74.71850119 -21.65346931
v -20.38581154 37.83800084 16.40097066
v -17.68239306 43.43615431 27.24215880
v -18.67079583 5.81042308 2.66638510
v -16.95845586 46.51839502 31.24166624
v -17.99725296 -76.18367878 -14.86875237
v -1.64944522 -74.13585356 0.17746044
v -30.37627695 61.22124051 29.45499938
v -17.94006666 -32.09548935 4.00699635
v -20.33742551 36.72918600 10.96421252
v -15.27667907 56.61357545 28.92689144
v -21.73297672 71.72130140 28.09735414
v -5.78114941 -66.27377400 3.10395509
v -2.90179573 -63.48878755 3.49969746
v -13.44554217 43.36223373 28.37518080
v -12.09451386 24.84021497 3.40301615
v -12.14884863 37.63868502 4.81158742
v -14.75207053 -50.88842991 4.05453910
v -16.81706501 51.33297343 33.79406318
v -11.22632918 -71.55199493 1.73547223
v -12.04696342 39.33485722 3.10535128
v -12.67461191 -11.92463415 4.08394597
v -16.61438354 36.48241628 15.82317965
v -20.15087702 -58.98038188 3.56117932
v -15.16187082 -1.21854143 3.38719213
v -3.54060137 69.17220397 29.59769542
v -26.74005111 64.20778199 30.14884218
v -15.48730132 37.79791659 19.69422373
v -20.97906005 59.00745463 28.05097913
v -12.44508995 -74.32114695 -7.36279865
v -32.41891146 75.61660997 -7.38740304
v -9.30490343 52.72475871 32.58364449
v -7.93933026 66.14228127 30.26429673
v -14.35842046 35.69737019 11.91553433
v -8.83019378 35.40900673 10.08766551
v -4.48007658 57.48861741 25.83007223
v -9.12269290 56.11053814 29.14065399
v -7.50028536 -6.27704465 4.18755621
v -5.52561965 48.46993365 33.02927072
v -3.67555775 45.11545495 30.42863501
v -4.59707183 75.16924522 20.54132303
v -7.74363597 35.44201201 16.49993242
v -13.64078717 -30.29433374 4.22607804
v -9.26205438 9.89249051 3.80171876
v -1.46915860 39.83160267 3.61894421
v -4.37829810 8.35640496 4.13824681
v -16.90753770 -52.78184382 -21.79842336
v 10.75924753 64.10746337 -21.85503694
v -3.34871812 40.35049573 25.25168171
v 1.18145775 29.29743294 4.04628858
v -0.18865321 52.48810554 32.76569660
v -11.75337816 38.12872797 21.40843425
v -5.72428376 50.99254454 33.81368037
v 6.65978028 59.22310503 28.01070784
v -11.26895305 -50.52378122 4.24507971
v 4.24308430 36.72797505 20.55585520
v -1.27469438 75.10493412 -7.05163253
v 6.44961374 5.86523181 4.27496644
v -0.77555611 -76.15000836 -15.89581562
v 5.84406472 -29.71792253 4.34938553
v -7.62613950 -56.80542248 4.02307872
v 5.84120463 75.28731062 3.32448594
v -10.26372758 36.64774259 6.73928699
v 13.35745345 -53.76544828 4.22393985
v 3.33326371 -74.47975601 -2.74829812
v -5.58985225 34.71166292 13.41838045
v 0.59377719 -75.89260852 -10.04988428
v 7.56210623 31.14477830 4.03731405
v 17.72199240 76.15560939 -8.21502200
v 6.05904936 21.56708231 4.15128478
v 5.59498766 52.73153334 32.27182931
v 8.24991320 44.93259562 30.41257212
v 15.25424825 6.74601838 4.24151474
v 7.51930735 -72.94093961 1.22068269
v 5.58392508 56.89295208 28.31330421
v 6.14026852 40.84161449 26.93640576
v 3.02869590 76.10698476 -20.44736697
v 5.68545877 55.54659189 29.92442983
v 19.63849132 57.92495243 26.06674971
v 7.04275620 38.07750206 5.45484344
v 19.08266860 75.07885781 20.61846142
v 5.69931103 50.71284584 33.11399293
v 29.91383717 -73.73691901 -9.32006254
v 14.23154489 39.50498887 25.54199614
v 14.82555222 -62.21087849 3.65203170
v 17.30486486 35.10921138 17.10017527
v 16.11842020 16.30513775 4.11360042
v -20.69052577 73.37375682 26.17906258
v 16.13985154 44.99953809 29.91318035
v 21.98050283 73.90447745 25.35961574
v 14.21545924 41.09307565 3.44323751
v 17.70144942 52.23598216 31.71601384
v 14.02800317 -76.17241829 -17.56798994
v 15.24287340 36.00911849 8.79226002
v 17.71429611 -48.94612803 4.14647263
v 22.08188089 66.26696521 30.23383503
v 15.02733459 38.40607906 5.26190740
v 16.41691791 54.95603072 30.61845053
v 31.59527302 -46.74372745 -21.83663899
v 17.78926932 34.84117998 11.48056500
v 24.02370080 71.68029948 28.06674924
v 17.03292839 -23.97212491 4.20327150
v 20.47522628 26.54487683 3.80046046
v 18.09060771 62.55581297 29.71460088
v 18.67005977 18.26901499 4.06233200
v 17.96232908 36.62983303 20.58828937
v 33.78670718 75.68745992 -7.31925268
v 19.25262245 43.58199432 29.12265308
v 17.70189438 56.97665749 28.63064775
v 32.49448425 58.62328654 27.07650255
v 19.46088353 41.76890559 27.67652263
v 20.85440086 -55.66851128 3.94239240
v 29.41043794 -74.22574523 -7.86687170
v -28.24577227 12.37748021 -21.79696587
v 18.18384358 75.21900308 5.99557461
v 27.01751509 52.76686425 32.56121182
v 20.66678400 37.80057648 3.12435467
v 23.06082342 39.78023649 23.39872923
v 21.44500392 -20.96083754 3.98632491
v 25.60089815 -60.00993348 3.52326281
v 20.22633124 34.51955754 13.89891886
v 26.37414802 55.37361003 31.31991734
v 24.33316645 34.19292437 5.93639891
v 28.07465942 74.09926318 22.56870763
v 22.55179193 35.56601769 4.16845253
v 25.80656220 33.87519230 8.99093738
v 24.37479778 55.88901265 18.62113248
v 25.49780630 -74.73751875 -21.79739054
v 24.17452107 74.77660799 20.36415358
v 22.12982738 -68.42133274 2.70636825
v 23.08819439 75.01517538 -6.82230386
v 27.88415159 34.40706382 3.41004611
v 23.36924873 48.23418464 30.99405099
v 29.07942532 -74.16326764 -0.02999903
v 23.73365880 35.28998769 15.05670948
v 25.80343698 24.43891062 3.39504430
v 32.13393683 -75.91137066 -21.30699463
v 25.17266768 56.36871852 20.51334352
v 27.54513090 -1.32228038 3.28854761
v 30.38098291 42.94419417 22.82850489
v 27.07175139 46.47560677 4.09284371
v 27.58821204 35.27734381 2.67038794
v 31.24215944 49.28588626 30.58775876
v 25.78172418 55.01008962 14.86127987
v 25.64829100 49.26001749 7.67607498
v 28.41063877 33.88348878 4.94971421
v 29.58042933 -65.16115776 2.95988906
v 27.86917337 57.25807633 28.14684860
v 29.38194881 56.52151199 20.51473539
v 29.25500847 50.18215541 2.81756504
v 28.14118830 57.36159585 24.67277690
v 25.70780142 53.92036211 15.45989050
v 28.30214036 68.33310621 29.80923082
v 28.60552855 54.33639330 12.02395700
v 30.11800279 50.85977385 32.22219041
v 28.07535710 42.80077348 -21.86456730
v 29.22924774 53.73894776 6.89059075
v 27.20876334 52.07854775 13.30952250
v 28.81758749 46.82754598 1.66114515
v 30.07618617 70.92686572 27.72604911
v 28.25899452 74.49322488 -6.80409966
v 29.65601519 21.65871777 2.80216835
v 27.29597718 75.80136975 -20.72530806
v 34.37206044 74.30059172 -21.70180611
v 27.59080785 74.55609394 8.51987310
v 28.21552223 60.64989657 -21.89682826
v 29.55639752 52.38549032 4.56419191
v 31.88775154 -75.85842821 -10.28900874
v 31.17564864 60.48539236 28.90258554
v 29.88244053 -70.03935277 -21.84925090
v 29.78843096 -67.97604765 -21.82442028
v 32.11070893 51.96794135 -1.11571737
v 27.44847315 44.47032885 2.24526232
v 30.73313079 69.52337791 -21.91787063
v 30.79055669 51.56708425 -0.17033254
v 29.45645577 53.19363736 0.75809865
v 30.89708215 -68.98187777 -30.42291680
v 31.03785758 69.59626865 -26.20560972
v 30.70387192 66.24339983 -21.92695197
v 31.01268639 69.09525771 -34.26532474
v 29.99836222 63.86994889 30.09196319
v 31.30076771 35.79234169 2.28321828
v 31.08176821 34.23363087 4.66253296
v 29.87142614 53.88285509 9.15366411
v 34.12870611 55.55134047 29.31313985
v 31.38437756 -68.85774868 -34.63613634
v 31.51886161 54.91783710 31.46343312
v 31.25915793 67.34606997 -28.48250211
v 32.21274078 67.90651919 -34.28154390
v 31.51766630 -67.60527056 -34.58102280
v 32.12478819 69.92462890 -34.28384721
v 29.93588323 45.91116773 4.78618420
v 31.86336813 41.61585470 2.05866365
v 33.09336587 68.16768602 28.47478979
v 32.95540371 -75.08710855 -9.52457003
v 31.86638537 -68.10899540 -21.84877569
v 32.52986956 -68.78093404 -34.45377216
v 32.02353777 -69.96764585 -21.88700139
v 30.03464972 52.72059298 -6.54588579
v 32.51738942 72.98504103 17.22423954
v 32.38011450 52.74645821 -0.63888942
v 32.32436790 66.92688215 -24.65165736
v 32.14653776 69.48553527 -21.95708057
v 32.30943111 66.34980459 -21.92958975
v 30.67434277 53.62821549 18.65640557
v 32.69216302 -67.71469647 -34.57945874
v 33.13208428 57.18943166 20.78307045
v 31.79786236 53.52908353 5.63979086
v 32.87963321 69.12165049 -34.32820801
v 33.91489364 34.88478690 4.64996201
v 33.15114320 35.77081672 7.79570750
v 32.73314846 -73.51977502 0.61894402
v 33.20482664 47.41897295 25.58967270
v 33.65983880 56.00423833 26.32355158
v 34.64518798 74.66002143 -6.86436650
v 33.00567214 71.22823386 24.91561901
v 33.07401930 37.32661322 1.97937067
v 32.54017055 -8.91571132 2.29336557
v 33.50169270 -67.13517976 2.10406600
v 33.64361242 51.03175921 30.84051674
v 33.59490130 64.85952413 29.16963681
v 33.70170715 59.66250540 27.84251200
v 34.58721842 -72.19831277 -9.17566389
v 33.66639305 61.89379433 28.97030173
v 34.00799547 55.35259894 14.39930899
v 33.74910924 52.60320736 32.42028849
v 34.03803017 39.03557640 1.85397974
v 32.38339962 76.01029292 -9.93456510
v 33.06905475 52.58192456 -7.83488386
v 33.48568870 73.39802072 -0.41594272
v 34.14728717 38.55059227 11.56677854
v 34.94933847 49.87362119 24.37848057
v 35.38011362 72.63927234 -6.75973233
v 34.22472943 42.03582571 17.32939111
v 34.85644644 61.59084348 25.65753485
v 35.02311072 54.63712689 27.32481522
v 34.11895402 71.90450111 16.58726860
v 35.48186045 40.63401926 4.39210865
v 34.74130837 45.81586002 9.77121594
v 34.82501282 53.11748328 -0.10733330
v 35.68491863 57.49806706 15.80074286
v 35.14436136 51.49907865 -0.21964659
v 34.55764891 36.29184918 2.62248380
v 34.92991179 56.47870002 13.53669749
v 33.83960379 -71.40810417 1.45717106
v 35.42224235 51.88211559 -8.02841351
v 35.85183947 49.98974210 16.83791565
v 35.14060814 75.25063386 -20.56832060
v 35.64594063 40.79035804 11.12997504
v 36.73808902 36.95264090 4.80553344
v 34.90372892 48.79533758 0.90112175
v 37.11660280 53.41791728 -7.75802844
v 35.74158238 40.44804075 3.65403972
v 35.27503312 66.02351489 23.95467388
v 36.22854004 49.56478763 17.31664799
v 35.90906095 34.27630734 1.06933896
v 35.21788230 -72.13904887 0.29469497
v 35.36853802 68.48623096 19.99044541
v 35.85955650 -10.15813770 1.07195317
v 35.51295330 -74.11568049 -21.76785442
v 35.86552754 71.77786578 1.96663236
v 36.21790228 50.44488893 20.25152851
v 36.03601666 -68.48790918 1.09093291
v 36.63725003 46.30562273 13.82960857
v 37.32524011 38.48275169 4.68883306
v 36.00962047 -70.48630022 -9.04984495
v 35.65340213 -74.77527187 -10.32271953
v 37.99519329 74.01823139 -8.48489878
v 35.65940382 28.87653506 -21.90863423
v 36.56670148 75.00612076 -12.97475022
v 38.80032653 68.47991601 -21.83724043
v 36.87826351 46.85316387 0.19685492
v 36.51912184 -74.35900826 -20.91851795
v 37.11333897 -66.95511873 -8.92013697
v 37.05660053 54.49939464 0.37795542
v 37.19743483 29.39392125 0.11515793
v 38.40568512 -68.73738037 -9.04723513
v 36.83002791 64.24117636 13.63409371
v 37.23887725 6.14497362 0.01830384
v 37.17711064 -68.28748644 0.06462630
v 37.19609101 46.61770114 -8.00651046
v 37.09675877 60.03369919 10.69684489
v 37.43028687 10.58023025 -8.60183153
v 37.39992983 -35.67601466 -8.63754153
v 37.82100107 73.78185479 -20.79137542
v 37.45360226 -35.85019079 -2.31016249
v 38.42407962 72.58549079 -7.50615949
v 37.87010410 -72.15445397 -21.61335439
v 38.35845775 15.52641563 -21.64531796
v 38.08665629 68.44810041 -6.94176359
v 38.37181986 58.46424197 -7.54728384
v 37.75751103 -72.56359893 -9.80999125
v 38.27877257 64.77507576 -1.30602568
v 38.37367217 59.66978770 -2.17544254
v 38.60967576 48.98235621 -21.69761206
v 38.16275989 -19.67133428 -21.80719758
v 38.37126067 48.53165263 -8.18882866
v 38.89118093 -69.28637239 -21.44538157
v 38.52479654 22.66681924 -8.83598689
v 38.43032794 65.38572666 -7.44397460
v 38.79474270 20.81771666 -20.94795363
v 38.93249731 -68.47671209 -10.59809591
v 39.15969883 50.37247309 -8.90506819
v 39.21115970 68.31437689 -7.56742109
v 39.19575928 26.93378861 -12.30671673
v 39.10302946 46.79887073 -20.90876904
v 39.17112714 -48.45759906 -13.75984134
v 39.04730436 2.39961912 -16.29696199
v 39.34037433 -61.20988478 -20.65149885
v 39.09557214 -15.58724847 -21.43289014
v 39.13191862 71.61413797 -20.57459778
v 39.29601295 -22.00340214 -20.09191241
v 39.33502006 44.71553734 -12.39255122
v 39.94734792 67.08020824 -11.71239975
v 39.75391660 67.94794102 -20.78854110
f 212 206 176
f 206 212 229
f 215 193 209
f 205 216 234
f 205 234 225
f 211 215 228
f 211 176 185
f 212 211 228
f 193 215 185
f 176 211 212
f 237 229 231
f 212 228 199
f 243 234 216
f 243 216 230
f 211 185 215
f 231 212 199
f 193 205 225
f 209 193 225
f 229 212 231
f 199 228 215
f 221 233 236
f 233 213 227
f 221 213 233
f 466 415 425
f 459 433 430
f 431 417 399
f 415 442 412
f 425 434 466
f 399 408 403
f 434 433 459
f 412 416 403
f 412 403 415
f 434 459 466
f 415 408 425
f 466 442 415
f 430 457 459
f 433 408 417
f 408 415 403
f 410 402 385
f 425 408 434
f 408 433 434
f 412 402 410
f 410 416 412
f 399 417 408
f 569 572 573
f 573 572 564
f 573 564 529
f 572 561 571
f 572 571 564
f 543 526 569
f 526 545 569
f 569 545 572
f 545 562 572
f 529 569 573
f 561 572 562
f 553 529 564
f 571 563 564
f 564 559 553
f 564 563 559
f 571 561 557
f 571 557 563
f 563 566 559
f 563 565 566
f 559 568 547
f 559 566 568
f 566 565 568
f 563 557 560
f 563 560 565
f 565 570 568
f 568 570 567
f 568 567 556
f 565 567 570
f 565 560 567
f 567 560 556
f 550 556 560
f 529 543 569
f 548 551 558
f 558 551 552
f 558 552 549
f 562 558 549
f 549 555 562
f 555 561 562
f 555 557 561
f 559 547 553
f 568 554 547
f 560 557 535
f 568 556 554
f 535 550 560
f 556 550 546
f 545 548 562
f 558 562 548
f 551 536 552
f 552 540 533
f 549 552 533
f 510 549 533
f 549 510 555
f 539 557 555
f 539 541 557
f 541 542 557
f 542 535 557
f 556 546 554
f 546 550 531
f 543 528 526
f 529 422 543
f 548 536 551
f 536 540 552
f 553 527 529
f 510 504 555
f 539 555 504
f 530 534 539
f 553 547 527
f 539 534 541
f 534 537 541
f 537 544 541
f 541 544 542
f 537 538 544
f 544 532 542
f 544 538 532
f 542 532 535
f 525 531 550
f 546 531 518
f 506 528 543
f 473 491 545
f 491 519 548
f 491 548 545
f 519 516 548
f 536 548 516
f 533 540 499
f 520 522 513
f 539 500 530
f 514 534 530
f 522 507 523
f 507 508 523
f 514 537 534
f 547 554 527
f 517 538 537
f 517 521 538
f 532 538 524
f 524 535 532
f 546 518 454
f 538 515 524
f 473 526 365
f 526 528 365
f 526 473 545
f 543 422 506
f 536 516 512
f 512 493 540
f 540 536 512
f 529 527 424
f 499 502 533
f 533 502 498
f 533 498 510
f 500 539 504
f 500 509 530
f 520 490 522
f 509 514 530
f 522 523 496
f 523 511 496
f 514 517 537
f 535 453 550
f 550 453 525
f 528 486 365
f 506 486 528
f 495 516 519
f 529 424 462
f 499 540 493
f 472 494 520
f 472 520 513
f 494 490 520
f 513 522 505
f 522 497 505
f 496 497 522
f 485 514 509
f 522 492 507
f 511 523 485
f 508 507 489
f 501 523 508
f 523 501 485
f 475 517 514
f 476 521 517
f 538 521 503
f 503 515 538
f 481 524 515
f 488 495 519
f 491 488 519
f 512 479 493
f 502 483 498
f 494 478 490
f 522 490 492
f 507 492 489
f 511 485 451
f 469 508 489
f 508 468 501
f 475 476 517
f 476 477 521
f 554 454 357
f 554 546 454
f 524 481 535
f 481 453 535
f 426 525 453
f 525 395 531
f 395 518 531
f 488 458 495
f 495 474 516
f 516 474 512
f 512 474 452
f 452 479 512
f 479 482 493
f 482 480 493
f 499 493 480
f 483 502 465
f 443 484 494
f 498 487 510
f 478 494 484
f 487 504 510
f 504 487 500
f 471 490 478
f 471 492 490
f 485 475 514
f 508 469 468
f 521 477 503
f 525 426 395
f 458 474 495
f 499 480 368
f 465 499 368
f 499 465 502
f 494 472 443
f 483 466 498
f 505 463 513
f 497 496 450
f 485 501 475
f 518 456 454
f 481 515 470
f 486 506 421
f 461 422 529
f 513 463 472
f 483 442 466
f 498 459 487
f 487 459 457
f 430 433 500
f 505 497 450
f 511 450 496
f 509 451 485
f 420 476 475
f 503 470 515
f 474 418 452
f 449 461 467
f 467 461 462
f 467 462 460
f 467 460 447
f 462 461 529
f 427 480 482
f 465 407 483
f 407 412 483
f 443 445 484
f 498 466 459
f 478 484 413
f 401 478 413
f 505 450 463
f 433 509 500
f 471 478 401
f 398 471 401
f 471 398 492
f 492 398 489
f 501 440 475
f 475 440 420
f 371 481 470
f 423 458 488
f 491 419 488
f 449 436 461
f 449 467 438
f 447 438 467
f 460 446 447
f 460 462 446
f 411 439 479
f 452 411 479
f 439 482 479
f 439 427 482
f 480 427 368
f 368 407 465
f 472 463 409
f 483 412 442
f 487 430 500
f 511 451 450
f 501 441 440
f 501 468 441
f 448 454 464
f 464 444 448
f 454 456 455
f 464 454 455
f 464 455 444
f 455 435 444
f 481 371 341
f 341 453 481
f 506 422 421
f 473 419 491
f 423 382 458
f 436 432 461
f 438 436 449
f 447 446 438
f 437 446 462
f 527 414 424
f 509 431 451
f 489 393 469
f 469 441 468
f 476 405 477
f 448 429 454
f 444 435 448
f 455 428 435
f 365 419 473
f 419 423 488
f 458 382 474
f 418 411 452
f 437 432 436
f 436 438 446
f 446 437 436
f 462 424 437
f 374 484 445
f 463 450 416
f 433 417 509
f 435 429 448
f 503 477 405
f 456 428 455
f 486 327 365
f 418 474 382
f 368 409 407
f 472 406 443
f 443 406 445
f 374 413 484
f 487 457 430
f 417 431 509
f 431 450 451
f 441 390 440
f 469 393 441
f 441 404 390
f 420 397 476
f 435 428 429
f 470 392 371
f 422 461 432
f 432 437 424
f 374 445 380
f 396 409 463
f 489 398 376
f 397 405 476
f 518 395 386
f 418 359 411
f 472 409 406
f 407 409 396
f 406 380 445
f 463 416 410
f 398 401 376
f 376 393 489
f 400 440 390
f 393 384 441
f 405 388 503
f 388 470 503
f 418 382 348
f 348 359 418
f 407 402 412
f 399 450 431
f 441 384 404
f 440 394 420
f 394 397 420
f 456 518 386
f 365 389 419
f 439 362 427
f 366 401 413
f 394 440 400
f 554 372 527
f 405 397 378
f 454 429 357
f 423 387 382
f 463 385 396
f 410 385 463
f 450 403 416
f 450 399 403
f 366 413 391
f 390 383 400
f 354 439 411
f 407 396 402
f 404 384 381
f 381 390 404
f 377 378 397
f 428 456 386
f 419 389 423
f 402 396 385
f 377 397 394
f 554 357 372
f 428 386 429
f 389 387 423
f 409 337 406
f 424 414 306
f 374 391 413
f 393 379 384
f 392 323 371
f 426 351 395
f 387 339 382
f 400 383 375
f 381 383 390
f 377 370 378
f 429 386 357
f 325 426 453
f 422 259 421
f 368 337 409
f 406 367 380
f 366 369 401
f 376 401 369
f 384 358 381
f 414 527 372
f 348 382 339
f 337 367 406
f 379 358 384
f 400 361 394
f 332 470 388
f 380 356 374
f 394 363 377
f 350 391 374
f 376 364 393
f 375 361 400
f 343 405 378
f 389 373 387
f 361 363 394
f 373 339 387
f 356 380 367
f 369 364 376
f 352 381 358
f 352 383 381
f 335 486 421
f 393 364 344
f 393 344 379
f 343 378 370
f 354 362 439
f 356 350 374
f 391 350 347
f 383 355 375
f 363 360 377
f 353 370 377
f 312 427 362
f 347 366 391
f 360 353 377
f 343 388 405
f 342 369 366
f 364 369 342
f 322 370 353
f 375 355 349
f 432 424 306
f 368 312 337
f 355 383 352
f 331 360 363
f 312 368 427
f 349 361 375
f 345 331 363
f 265 323 392
f 389 320 373
f 422 432 259
f 363 361 349
f 359 284 411
f 322 353 360
f 486 335 327
f 373 320 339
f 284 354 411
f 347 330 366
f 366 334 342
f 370 319 343
f 343 272 388
f 392 332 265
f 270 284 359
f 330 334 366
f 470 332 392
f 426 325 317
f 335 421 259
f 346 359 348
f 326 363 349
f 322 319 370
f 314 364 342
f 341 87 453
f 426 317 351
f 365 315 389
f 432 306 259
f 337 333 367
f 356 367 336
f 356 336 329
f 356 340 350
f 338 349 355
f 355 352 338
f 379 344 324
f 367 333 336
f 318 322 360
f 388 278 332
f 340 347 350
f 364 314 344
f 326 345 363
f 316 360 331
f 320 299 339
f 270 359 346
f 356 329 340
f 414 372 306
f 340 330 347
f 328 331 345
f 328 345 326
f 358 338 352
f 379 324 358
f 315 320 389
f 316 318 360
f 339 299 348
f 334 314 342
f 349 308 326
f 291 362 354
f 278 388 271
f 333 329 336
f 349 338 303
f 357 305 372
f 325 453 87
f 289 315 365
f 329 309 340
f 326 308 328
f 328 316 331
f 348 253 346
f 314 300 344
f 300 324 344
f 312 294 337
f 303 308 349
f 321 338 358
f 319 272 343
f 337 294 333
f 329 333 309
f 272 271 388
f 386 395 146
f 386 305 357
f 327 289 365
f 309 311 340
f 338 321 303
f 324 293 358
f 322 313 319
f 317 168 351
f 340 297 330
f 334 307 310
f 334 310 314
f 340 311 297
f 316 301 318
f 334 330 298
f 334 298 307
f 308 304 328
f 386 146 305
f 284 291 354
f 297 298 330
f 351 168 395
f 304 316 328
f 301 313 322
f 323 288 371
f 296 301 316
f 299 253 348
f 300 314 310
f 358 293 321
f 301 322 318
f 335 165 327
f 88 335 259
f 321 275 303
f 302 304 308
f 325 264 317
f 362 287 312
f 333 295 309
f 304 296 316
f 332 278 265
f 255 265 278
f 325 131 264
f 327 165 289
f 298 273 307
f 266 287 362
f 289 186 315
f 306 217 259
f 333 294 295
f 290 309 295
f 309 290 311
f 296 304 302
f 280 301 296
f 285 362 291
f 312 287 294
f 279 308 303
f 274 302 308
f 186 299 320
f 279 303 275
f 315 186 320
f 279 274 308
f 286 300 310
f 287 246 294
f 297 263 298
f 292 293 324
f 302 283 296
f 283 280 296
f 276 319 313
f 285 266 362
f 263 273 298
f 273 310 307
f 294 269 295
f 294 246 257
f 277 297 311
f 306 372 217
f 294 257 269
f 290 295 269
f 311 290 277
f 277 197 297
f 300 281 324
f 324 281 292
f 280 267 301
f 282 272 319
f 300 286 281
f 254 275 321
f 252 274 279
f 321 293 254
f 256 280 283
f 194 87 341
f 284 163 291
f 277 290 269
f 297 197 263
f 191 165 335
f 299 186 241
f 299 241 253
f 265 208 323
f 323 208 194
f 323 194 288
f 317 264 168
f 273 261 310
f 274 262 302
f 262 283 302
f 256 267 280
f 282 319 276
f 261 286 310
f 281 268 292
f 252 258 274
f 372 305 187
f 301 267 313
f 263 261 273
f 293 292 254
f 258 262 274
f 267 276 313
f 282 271 272
f 278 271 218
f 277 269 251
f 252 279 275
f 254 252 275
f 286 260 281
f 257 251 269
f 248 258 252
f 247 283 262
f 278 218 255
f 255 113 265
f 286 261 260
f 281 260 268
f 292 268 254
f 267 282 276
f 194 341 371
f 288 194 371
f 325 87 131
f 291 163 285
f 261 250 260
f 240 258 248
f 178 267 256
f 305 146 150
f 217 132 259
f 261 263 249
f 252 245 248
f 252 254 245
f 248 243 240
f 247 256 283
f 305 160 187
f 282 149 271
f 173 163 284
f 251 257 198
f 246 198 257
f 197 249 263
f 249 250 261
f 268 245 254
f 240 262 258
f 240 242 262
f 149 218 271
f 113 208 265
f 253 182 346
f 242 232 262
f 178 282 267
f 264 131 168
f 241 182 253
f 259 132 156
f 270 346 153
f 270 173 284
f 249 180 250
f 250 235 260
f 248 245 243
f 244 245 268
f 188 256 247
f 168 146 395
f 259 156 88
f 246 238 198
f 223 277 251
f 250 202 235
f 244 243 245
f 226 268 260
f 226 244 268
f 178 200 282
f 88 191 335
f 192 237 231
f 243 244 234
f 226 260 235
f 230 240 243
f 236 240 230
f 236 239 240
f 239 242 240
f 233 239 236
f 242 239 224
f 242 224 232
f 232 247 262
f 186 204 241
f 182 241 204
f 181 251 198
f 223 251 181
f 223 197 277
f 234 209 225
f 244 209 234
f 227 239 233
f 222 224 239
f 239 227 222
f 210 247 232
f 289 147 186
f 238 246 287
f 237 214 229
f 237 192 214
f 192 231 199
f 164 249 197
f 235 195 226
f 244 226 209
f 216 207 230
f 207 220 236
f 230 207 236
f 236 220 219
f 236 219 221
f 224 222 232
f 256 188 178
f 149 92 218
f 165 84 289
f 238 287 201
f 238 214 198
f 229 214 206
f 235 202 195
f 226 195 209
f 216 205 207
f 207 196 220
f 220 196 190
f 220 190 219
f 203 227 213
f 222 210 232
f 255 218 92
f 182 153 346
f 153 173 270
f 287 142 201
f 201 184 238
f 238 184 214
f 214 184 206
f 215 195 199
f 180 202 250
f 209 195 215
f 205 193 207
f 193 189 207
f 189 196 207
f 221 219 203
f 213 221 203
f 203 219 174
f 170 222 227
f 222 170 210
f 247 210 130
f 305 150 160
f 217 122 132
f 266 142 287
f 198 214 162
f 214 192 162
f 171 192 199
f 195 171 199
f 217 372 48
f 189 190 196
f 219 190 161
f 219 161 174
f 203 174 177
f 203 177 227
f 177 170 227
f 130 157 247
f 247 157 188
f 200 149 282
f 206 184 176
f 192 155 162
f 223 164 197
f 192 171 155
f 164 180 249
f 195 180 171
f 202 180 195
f 185 189 193
f 189 183 179
f 179 172 189
f 189 172 190
f 190 172 169
f 169 161 190
f 174 167 177
f 198 151 181
f 181 151 223
f 176 175 185
f 175 154 183
f 175 183 189
f 185 175 189
f 154 172 183
f 183 172 179
f 170 177 140
f 130 210 170
f 147 204 186
f 198 162 151
f 176 184 175
f 171 180 164
f 172 158 169
f 166 174 161
f 177 167 159
f 174 166 167
f 159 140 177
f 204 145 182
f 148 153 182
f 141 184 201
f 143 162 155
f 164 155 171
f 154 152 172
f 169 144 161
f 166 161 144
f 170 140 108
f 187 160 44
f 131 119 168
f 145 148 182
f 142 141 201
f 162 143 151
f 141 152 184
f 184 152 175
f 138 164 223
f 155 164 143
f 175 152 154
f 172 152 136
f 136 158 172
f 144 137 166
f 159 167 133
f 170 108 130
f 127 149 200
f 150 135 134
f 204 147 145
f 173 153 90
f 173 90 91
f 173 91 163
f 266 285 163
f 223 151 138
f 143 138 151
f 143 164 138
f 136 125 158
f 158 125 144
f 169 158 144
f 166 139 167
f 167 139 133
f 127 200 178
f 150 146 135
f 126 194 208
f 191 84 165
f 128 148 145
f 156 132 116
f 142 98 141
f 141 129 152
f 136 152 129
f 136 118 125
f 137 139 166
f 101 133 139
f 127 178 188
f 96 149 127
f 96 92 149
f 121 134 135
f 153 148 90
f 114 116 132
f 114 132 124
f 124 132 122
f 124 122 120
f 129 141 98
f 129 118 136
f 125 137 144
f 159 133 117
f 117 140 159
f 150 134 110
f 121 135 123
f 135 146 115
f 92 113 255
f 147 128 145
f 139 137 99
f 121 110 134
f 107 110 121
f 135 111 123
f 115 111 135
f 103 194 126
f 208 113 126
f 120 105 124
f 122 109 112
f 122 112 120
f 95 122 217
f 104 266 163
f 75 140 117
f 93 127 188
f 160 150 44
f 100 96 127
f 121 123 107
f 123 111 107
f 111 115 110
f 103 87 194
f 131 71 119
f 168 77 146
f 128 89 148
f 106 116 114
f 106 109 116
f 106 124 105
f 124 106 114
f 112 109 106
f 120 112 105
f 122 95 109
f 104 142 266
f 98 86 129
f 118 129 86
f 118 86 85
f 125 118 85
f 137 125 97
f 137 97 99
f 133 101 117
f 139 102 101
f 140 75 108
f 108 79 130
f 187 44 372
f 157 93 188
f 111 110 107
f 87 71 131
f 168 119 77
f 84 191 88
f 70 128 147
f 147 289 70
f 148 89 83
f 148 83 90
f 105 112 106
f 91 104 163
f 104 98 142
f 125 85 97
f 139 99 102
f 94 100 127
f 150 110 44
f 115 146 110
f 146 68 110
f 89 128 70
f 116 95 156
f 109 95 116
f 80 75 117
f 75 76 108
f 93 94 127
f 74 100 94
f 92 82 113
f 57 91 90
f 104 86 98
f 217 48 95
f 53 97 85
f 101 80 117
f 102 69 101
f 108 76 79
f 130 79 157
f 79 93 157
f 72 94 93
f 74 81 100
f 81 96 100
f 81 92 96
f 126 82 103
f 82 126 113
f 87 103 45
f 146 77 68
f 88 66 84
f 289 61 70
f 83 89 65
f 50 104 91
f 97 53 99
f 99 53 102
f 82 92 81
f 119 71 77
f 66 61 84
f 61 289 84
f 66 88 73
f 156 73 88
f 156 95 73
f 57 50 91
f 101 69 80
f 44 48 372
f 67 74 94
f 110 68 44
f 103 78 60
f 82 81 63
f 78 103 82
f 71 87 45
f 70 65 89
f 90 83 57
f 50 62 104
f 86 104 62
f 62 64 86
f 64 85 86
f 64 46 85
f 46 53 85
f 53 51 102
f 102 51 69
f 69 47 80
f 76 75 79
f 79 72 93
f 94 72 67
f 63 81 74
f 82 63 78
f 66 39 61
f 52 65 70
f 70 49 52
f 52 83 65
f 40 64 62
f 51 47 69
f 38 75 80
f 58 79 75
f 58 75 54
f 58 72 79
f 67 72 58
f 59 58 56
f 59 67 58
f 60 56 55
f 60 59 56
f 59 63 67
f 63 74 67
f 60 63 59
f 78 63 60
f 30 45 60
f 45 103 60
f 71 43 68
f 77 71 68
f 61 39 36
f 66 73 39
f 61 49 70
f 52 57 83
f 50 40 62
f 64 40 46
f 35 53 46
f 38 80 47
f 38 54 75
f 58 54 56
f 55 56 54
f 37 30 55
f 30 60 55
f 45 43 71
f 36 29 61
f 29 49 61
f 34 52 49
f 29 34 49
f 57 52 42
f 50 57 42
f 42 40 50
f 32 46 40
f 53 35 41
f 41 51 53
f 47 51 41
f 47 41 38
f 38 37 54
f 37 55 54
f 44 22 48
f 24 39 73
f 73 95 24
f 36 15 29
f 27 42 52
f 27 52 34
f 29 26 34
f 42 27 28
f 28 40 42
f 32 40 28
f 46 32 35
f 13 31 19
f 41 35 23
f 38 41 23
f 38 23 31
f 38 31 18
f 37 38 18
f 44 68 22
f 68 33 22
f 45 30 21
f 43 45 21
f 43 21 68
f 15 36 39
f 26 27 34
f 20 28 27
f 20 27 26
f 29 19 26
f 26 19 20
f 25 28 20
f 25 20 19
f 25 32 28
f 35 32 25
f 31 23 19
f 23 25 19
f 18 31 13
f 23 35 25
f 9 16 18
f 16 37 18
f 16 30 37
f 17 30 16
f 21 30 17
f 14 21 17
f 33 21 14
f 68 21 33
f 24 15 39
f 8 11 15
f 8 15 24
f 95 8 24
f 11 29 15
f 95 48 8
f 19 29 13
f 11 13 29
f 9 18 7
f 12 9 10
f 16 9 12
f 14 16 12
f 33 14 22
f 14 17 16
f 5 11 8
f 48 5 8
f 5 3 11
f 3 5 1
f 13 11 3
f 3 4 13
f 4 18 13
f 6 4 2
f 7 18 4
f 22 6 2
f 6 7 4
f 6 9 7
f 10 9 6
f 10 6 22
f 14 12 10
f 14 10 22
f 1 5 48
f 1 4 3
f 1 48 22
f 2 4 1
f 2 1 22

